<?xml version="1.0" encoding="UTF-8" standalone="no"?>
<!DOCTYPE svg PUBLIC "-//W3C//DTD SVG 1.1//EN" "http://www.w3.org/Graphics/SVG/1.1/DTD/svg11.dtd">
<svg version="1.1" xmlns="http://www.w3.org/2000/svg" xmlns:xlink="http://www.w3.org/1999/xlink" preserveAspectRatio="xMidYMid meet" viewBox="0 0 640 640" width="640" height="640"><defs><path d="M453.05 364.51C445.93 375.28 429.14 414.7 369.1 428.75C309.07 442.8 275.86 448.45 218.01 424.37C160.16 400.28 139.36 380.57 128.96 329.48C118.56 278.38 124.4 245.9 164.73 205.39C205.05 164.88 231.88 163.24 299.03 157.94C343.8 154.42 397.09 166.82 458.89 195.17C470.2 206.24 477.5 216.7 480.78 226.56C485.71 241.34 463.45 252.65 458.89 253.56C454.32 254.48 456.7 220.35 453.05 221.45C449.4 222.54 447.03 244.8 443.38 246.99C439.73 249.18 436.44 239.15 436.99 230.94C437.54 222.72 448.68 229.48 442.65 216.34C436.63 203.2 432.43 181.67 294.65 181.3C156.88 180.94 176.4 299.18 176.4 325.1C176.4 351.01 208.34 371.08 237.72 387.87C267.1 404.66 312.9 376.92 352.32 390.79C391.73 404.66 432.79 403.02 430.42 338.24C428.05 273.45 321.48 387.51 266.91 368.16C212.35 348.82 229.87 319.07 233.34 305.39C236.81 291.7 255.05 252.47 286.62 266.7C318.19 280.94 399.4 306.3 426.77 301.01C454.14 295.72 460.35 272.91 464.73 301.01C469.1 329.11 460.16 353.75 453.05 364.51Z" id="b5ZQ0BkF5"></path><path d="M453.39 252.85C455.51 255.04 454.61 259.94 450.68 267.56C448.06 272.64 444.1 278.93 438.8 286.42C441.84 272.43 442.57 263.43 440.99 259.42C438.61 253.39 448.1 247.37 453.39 252.85Z" id="hcKPQ6v24"></path></defs><g><g><g><use xlink:href="#b5ZQ0BkF5" opacity="1" fill="#000000" fill-opacity="1"></use><g><use xlink:href="#b5ZQ0BkF5" opacity="1" fill-opacity="0" stroke="#000000" stroke-width="1" stroke-opacity="1"></use></g></g><g><use xlink:href="#hcKPQ6v24" opacity="1" fill="#000000" fill-opacity="1"></use><g><use xlink:href="#hcKPQ6v24" opacity="1" fill-opacity="0" stroke="#000000" stroke-width="1" stroke-opacity="1"></use></g></g></g></g></svg>